<!-- Lucide "camera" (lucide-static 1.51.0, ISC), stroke outlined to a fill so ArkUI fillColor can tint it -->
<svg xmlns="http://www.w3.org/2000/svg" width="24" height="24" viewBox="0 0 24 24"><path fill="#000000" fill-rule="evenodd" d="M9.541 3.043 C 8.992 3.126,8.414 3.405,8.002 3.786 C 7.646 4.116,7.517 4.295,7.143 4.978 C 6.763 5.671,6.689 5.769,6.451 5.886 C 6.265 5.978,6.226 5.981,4.860 6.003 C 3.522 6.025,3.446 6.030,3.139 6.124 C 2.177 6.419,1.420 7.180,1.114 8.160 L 1.020 8.460 1.020 13.500 L 1.020 18.540 1.114 18.840 C 1.422 19.827,2.173 20.578,3.160 20.886 L 3.460 20.980 12.000 20.980 L 20.540 20.980 20.840 20.886 C 21.827 20.578,22.578 19.827,22.886 18.840 L 22.980 18.540 22.980 13.500 L 22.980 8.460 22.886 8.160 C 22.580 7.180,21.823 6.419,20.861 6.124 C 20.554 6.030,20.478 6.025,19.140 6.003 C 17.302 5.973,17.434 6.032,16.857 4.978 C 16.689 4.671,16.489 4.335,16.414 4.232 C 16.160 3.886,15.734 3.530,15.344 3.339 C 14.680 3.013,14.797 3.025,12.140 3.016 C 10.842 3.011,9.673 3.024,9.541 3.043 M14.315 5.062 C 14.606 5.148,14.772 5.332,15.076 5.901 C 15.619 6.917,15.995 7.337,16.646 7.656 C 17.273 7.964,17.321 7.971,18.880 7.997 C 20.429 8.024,20.427 8.023,20.717 8.321 C 21.016 8.630,21.000 8.342,21.000 13.501 C 21.000 18.501,21.008 18.318,20.779 18.618 C 20.718 18.698,20.585 18.813,20.484 18.872 L 20.300 18.980 12.000 18.980 L 3.700 18.980 3.516 18.872 C 3.415 18.813,3.284 18.700,3.225 18.623 C 2.989 18.314,3.000 18.562,3.000 13.522 C 3.000 8.339,2.984 8.630,3.283 8.321 C 3.573 8.023,3.571 8.024,5.120 7.997 C 6.679 7.971,6.727 7.964,7.354 7.656 C 8.005 7.337,8.381 6.917,8.924 5.901 C 9.221 5.346,9.397 5.148,9.668 5.064 C 9.962 4.974,14.012 4.972,14.315 5.062 M11.358 9.061 C 10.230 9.237,9.143 9.974,8.569 10.953 C 7.320 13.083,8.233 15.785,10.512 16.704 C 12.558 17.528,14.877 16.538,15.704 14.488 C 16.090 13.530,16.090 12.469,15.705 11.516 C 15.172 10.197,14.001 9.269,12.605 9.058 C 12.144 8.989,11.816 8.990,11.358 9.061 M12.523 11.073 C 13.262 11.266,13.850 11.924,13.967 12.690 C 14.067 13.343,13.873 13.933,13.403 14.404 C 13.002 14.807,12.547 15.000,12.000 15.000 C 11.485 15.000,11.038 14.822,10.653 14.465 C 9.323 13.229,10.189 11.005,12.000 11.005 C 12.143 11.005,12.378 11.036,12.523 11.073"/></svg>
