<!-- Lucide "smile" (lucide-static 1.51.0, ISC), stroke outlined to a fill so ArkUI fillColor can tint it -->
<svg xmlns="http://www.w3.org/2000/svg" width="24" height="24" viewBox="0 0 24 24"><path fill="#000000" fill-rule="evenodd" d="M11.280 1.023 C 11.203 1.032,10.951 1.059,10.720 1.083 C 8.832 1.283,6.991 2.023,5.360 3.235 C 4.751 3.688,3.684 4.755,3.226 5.367 C 0.728 8.714,0.301 13.032,2.097 16.780 C 2.643 17.918,3.276 18.801,4.238 19.762 C 5.199 20.724,6.082 21.357,7.220 21.903 C 10.967 23.699,15.288 23.270,18.637 20.770 C 19.246 20.316,20.316 19.246,20.770 18.637 C 23.744 14.652,23.744 9.348,20.770 5.363 C 20.316 4.755,19.247 3.686,18.640 3.235 C 17.045 2.049,15.365 1.360,13.423 1.096 C 13.000 1.038,11.574 0.990,11.280 1.023 M13.320 3.101 C 15.883 3.488,18.124 4.931,19.560 7.120 C 19.863 7.583,20.303 8.479,20.492 9.020 C 20.838 10.013,20.977 10.865,20.977 12.000 C 20.977 13.493,20.720 14.621,20.080 15.940 C 19.375 17.394,18.311 18.607,16.927 19.532 C 16.138 20.060,14.876 20.588,13.908 20.797 C 11.266 21.366,8.479 20.708,6.370 19.019 C 4.857 17.807,3.722 16.029,3.267 14.160 C 3.081 13.397,3.023 12.888,3.023 12.000 C 3.023 10.507,3.280 9.379,3.920 8.060 C 4.971 5.891,6.877 4.221,9.160 3.466 C 9.865 3.233,10.432 3.118,11.340 3.024 C 11.662 2.991,12.911 3.039,13.320 3.101 M8.695 8.057 C 8.466 8.129,8.256 8.299,8.128 8.516 C 8.020 8.699,8.020 8.703,8.020 9.503 L 8.020 10.306 8.141 10.503 C 8.543 11.156,9.457 11.156,9.859 10.503 L 9.980 10.306 9.980 9.503 C 9.980 8.703,9.980 8.699,9.872 8.516 C 9.628 8.101,9.150 7.915,8.695 8.057 M14.695 8.057 C 14.466 8.129,14.256 8.299,14.128 8.516 C 14.020 8.699,14.020 8.703,14.020 9.503 L 14.020 10.306 14.141 10.503 C 14.543 11.156,15.457 11.156,15.859 10.503 L 15.980 10.306 15.980 9.503 C 15.980 8.703,15.980 8.699,15.872 8.516 C 15.628 8.101,15.150 7.915,14.695 8.057 M7.097 14.116 C 6.637 14.349,6.432 14.820,6.581 15.303 C 6.647 15.516,6.699 15.585,7.098 15.980 C 9.515 18.372,13.285 18.669,16.078 16.688 C 16.287 16.541,16.657 16.222,16.901 15.980 C 17.283 15.602,17.355 15.510,17.413 15.325 C 17.491 15.075,17.496 14.959,17.435 14.740 C 17.359 14.467,17.172 14.251,16.892 14.113 C 16.665 14.001,16.615 13.991,16.399 14.014 C 16.072 14.048,15.973 14.107,15.509 14.546 C 14.741 15.274,13.951 15.694,12.942 15.910 C 12.498 16.005,11.502 16.005,11.058 15.910 C 10.049 15.694,9.259 15.274,8.491 14.546 C 8.023 14.103,7.923 14.044,7.589 14.015 C 7.367 13.995,7.314 14.006,7.097 14.116"/></svg>
